<svg xmlns="http://www.w3.org/2000/svg" viewBox="0 0 102.99 109.67"><defs><style>.cls-1{fill:#494949;}.cls-2{fill:#09bb07;}</style></defs><title>wechat-pay-vertical</title><g id="Layer_2" data-name="Layer 2"><g id="bg"><g id="_Group_" data-name="&lt;Group&gt;"><rect id="_Path_" data-name="&lt;Path&gt;" class="cls-1" x="36.35" y="92.98" width="14.35" height="1.42"/><rect id="_Path_2" data-name="&lt;Path&gt;" class="cls-1" x="36.35" y="96.96" width="14.35" height="1.52"/><path id="_Compound_Path_" data-name="&lt;Compound Path&gt;" class="cls-1" d="M50.33,108.87V101H36.71v7.83Zm-1.51-6.42v5H38.22v-5Z"/><path id="_Path_3" data-name="&lt;Path&gt;" class="cls-1" d="M32.59,109.67V91.92a44.26,44.26,0,0,0,2.1-5.49l0-.06-1.4-.8,0,.08a40,40,0,0,1-5.39,11.78l0,0,.84,1.43.06-.09c.77-1.13,1.56-2.44,2.31-3.79v14.65Z"/><path id="_Path_4" data-name="&lt;Path&gt;" class="cls-1" d="M84.89,85.65A40,40,0,0,1,79.5,97.43l0,0,.83,1.43.07-.09c.77-1.13,1.56-2.44,2.31-3.79v14.65H84.2V91.92a44.26,44.26,0,0,0,2.1-5.49l0-.06-1.4-.8Z"/><path id="_Path_5" data-name="&lt;Path&gt;" class="cls-1" d="M44.78,88.48l0-.09c-.1-.23-.35-.75-.65-1.39s-.53-1.11-.66-1.41l0-.11-1.4.8.05.1c.45.84.84,1.62,1.19,2.38a.73.73,0,0,1,.06.14H35v1.52H52.19V88.9H44Z"/><polygon id="_Path_6" data-name="&lt;Path&gt;" class="cls-1" points="15.53 87.86 14.12 87.86 14.12 92.34 11.85 92.34 11.85 85.97 10.44 85.97 10.44 92.34 8.07 92.34 8.07 87.86 6.66 87.86 6.66 93.75 15.53 93.75 15.53 87.86"/><rect id="_Path_7" data-name="&lt;Path&gt;" class="cls-1" x="7.05" y="96.12" width="7.88" height="1.42"/><path id="_Path_8" data-name="&lt;Path&gt;" class="cls-1" d="M12.2,105.81l0,.06.84,1.47.11-.09c.68-.55,1.85-1.55,3.48-3l.06-.06L15.94,103,14,104.61V99.9H7.35v2c.19,2.63-.46,4.5-1.93,5.57l-.08.06.74,1.28.07.12.1-.09a7.43,7.43,0,0,0,2.62-6.45v-1.08h3.75v2.77A2.62,2.62,0,0,1,12.2,105.81Z"/><path id="_Path_9" data-name="&lt;Path&gt;" class="cls-1" d="M1.25,93.44A26.15,26.15,0,0,0,6.19,86.5l0-.06L4.9,85.68l0,.07A21.82,21.82,0,0,1,.39,92l0,0,.84,1.46Z"/><path id="_Path_10" data-name="&lt;Path&gt;" class="cls-1" d="M.81,101.46l.1-.12c.71-.83,1.4-1.7,2.07-2.59v10.92H4.39V96.46A33.69,33.69,0,0,0,6,93.06l0-.09-1.36-.78,0,.12A26.58,26.58,0,0,1,.05,100l0,.06.73,1.27Z"/><path id="_Compound_Path_2" data-name="&lt;Compound Path&gt;" class="cls-1" d="M15.27,95.63l.89,1.55.65-1.3.43-.77a26,26,0,0,0,2,8A21,21,0,0,1,15,108l-.06.06.83,1.44.1-.09a21.53,21.53,0,0,0,4.1-4.83,26.1,26.1,0,0,0,3.87,4.9l.1.1.85-1.46-.07-.06a21,21,0,0,1-3.93-4.9c1.44-2.63,2.33-6.48,2.67-11.43h1.4V90.34H19.25a26.39,26.39,0,0,0,1.21-4.59v-.08H19l0,.06a31.56,31.56,0,0,1-3.7,9.87Zm3-2.77a10.28,10.28,0,0,1,.46-1.1h3.29a29.54,29.54,0,0,1-2,9.65A35.75,35.75,0,0,1,18.31,92.86Zm.84-2.44Z"/><path id="_Compound_Path_3" data-name="&lt;Compound Path&gt;" class="cls-1" d="M67.15,85.47H65.62v3.44H54.86v1.5H65.62v4.38h-7v1.35a24.77,24.77,0,0,0,3.25,5,23.7,23.7,0,0,0,3.15,3.18,28.2,28.2,0,0,1-9.64,3.69l-.1,0,.85,1.48,0,0h.05a33.69,33.69,0,0,0,10-4.3l.27.19a26,26,0,0,0,9.26,4.08l.09,0,.63-1.2-.08,0a39.53,39.53,0,0,1-3.75-1.27,27.56,27.56,0,0,1-5.33-2.73,20.2,20.2,0,0,0,6.76-8.82l0-.05L73,94.8H67.15V90.41H78v-1.5H67.15Zm5.18,10.66a17.67,17.67,0,0,1-6.09,7.26,20.91,20.91,0,0,1-6-7.26Z"/><path id="_Path_11" data-name="&lt;Path&gt;" class="cls-1" d="M99.3,91.59V85.71H97.78v5.88H86.45v1.52H97.78V105.8c0,1.32-.78,2-2.4,2h-.87v1.51h1.27a3.5,3.5,0,0,0,2.71-.88,3.4,3.4,0,0,0,.81-2.6V93.11H103V91.59Z"/><path id="_Path_12" data-name="&lt;Path&gt;" class="cls-1" d="M90.81,96.58l0-.07-1.37.8,0,.06c.84,1.64,1.78,3.64,2.8,5.95l0,.07,1.49-.87,0-.06C93,100.89,92,98.86,90.81,96.58Z"/></g><path id="_Path_13" data-name="&lt;Path&gt;" class="cls-2" d="M41.48,41.14a2.38,2.38,0,0,1-1.1.26,2.46,2.46,0,0,1-2.14-1.25l-.16-.36L31.37,25.07a1.17,1.17,0,0,1-.12-.52,1.23,1.23,0,0,1,1.23-1.23,1.17,1.17,0,0,1,.73.25l7.92,5.63a3.65,3.65,0,0,0,2,.6,3.71,3.71,0,0,0,1.26-.22L81.64,13C75,5.14,64,0,51.53,0,31.18,0,14.68,13.75,14.68,30.71c0,9.26,5,17.59,12.73,23.22a2.45,2.45,0,0,1,1,2,3,3,0,0,1-.13.78l-1.66,6.2a4,4,0,0,0-.2.89A1.23,1.23,0,0,0,27.68,65a1.36,1.36,0,0,0,.71-.23l8.07-4.65a3.68,3.68,0,0,1,3-.41,43.76,43.76,0,0,0,12,1.69c20.36,0,36.86-13.75,36.86-30.72a26.67,26.67,0,0,0-4.2-14.23L41.75,41Z"/></g></g></svg>