<svg xmlns="http://www.w3.org/2000/svg" width="750" height="471" viewBox="0 0 750 471"><g fill="none"><rect width="750" height="471" rx="40"/><path fill="#2BA6DF" d="M99.46 243.349c-4.801.6-13.203 2.4-18.004 6.6-14.403 12.6-6.001 34.799 23.405 34.799 16.804 0 33.607-10.8 46.81-27.599-19.204-9-34.808-15.6-52.212-13.8zM207.034 258.797c27.006 9 33.007 9.6 33.007 9.6v-95.997c0-16.2-13.203-29.399-30.007-29.399h-126.028c-16.204 0-30.007 13.2-30.007 29.399v125.996c0 16.2 13.203 29.399 30.007 29.399h126.028c16.204 0 30.007-13.2 30.007-29.399v-1.2s-48.011-19.799-72.616-31.799c-16.204 19.799-37.208 32.399-59.413 32.399-37.208 0-49.811-32.399-31.807-53.398 3.601-4.8 10.202-9 20.405-11.4 15.603-3.6 40.809 2.4 64.214 10.2 4.201-7.8 7.802-16.2 10.202-25.199h-72.616v-7.2h37.208v-14.4h-45.61v-7.2h45.61v-18.599s0-3 3.001-3h18.004v22.199h45.01v6.6h-45.01v13.2h36.608c-3.601 14.4-9.002 27.599-15.603 38.999 12.003 4.2 22.205 7.8 29.407 10.2z"/><path fill="#3F3A39" d="M325.689 186.613l39.609 85.798h-21.005l-10.802-22.799h-32.407l-10.802 22.799h-13.803l40.209-83.398s1.2-2.4 3.601-2.4h5.401zm-21.005 55.198h25.206l-12.603-26.999-12.603 26.999zm87.448 31.282h-19.204v-81.598c0-2.4 1.2-3.6 4.201-3.6h15.003v85.198zm36.008-.559h-19.204v-61.798c0-2.4 1.2-3.6 4.201-3.6h15.003v65.398zm23.482-64.115h12.603v6c2.401-1.8 4.801-3.6 7.802-4.2 3.001-1.2 6.001-1.8 10.202-1.8s7.802.6 10.802 2.4c3.601 1.8 6.001 3.6 8.402 6.6 2.401 3 4.201 6 5.401 9.6 1.2 3.6 1.8 7.2 1.8 11.4 0 5.4-.6 10.2-2.401 14.4-1.8 4.2-3.601 8.4-6.601 11.4-3.001 3-6.001 6-10.202 7.8-4.201 1.8-8.402 2.4-13.203 2.4h-6.601c-1.8 0-3.601-.6-5.401-1.2v21.599h-19.204v-78.598c-.6-7.8 2.401-7.8 6.601-7.8zm12.603 46.799c0 1.8 0 3 .6 4.2.6 1.2 1.2 2.4 2.401 3.6 1.2 1.2 2.401 1.8 3.601 2.4 1.2.6 3.001.6 4.801.6 1.8 0 3.001-.6 4.801-1.8 1.2-1.2 3.001-2.4 3.601-4.8.6-2.4 1.8-4.2 2.401-7.2.6-3 1.2-5.4 1.2-9 0-4.2 0-7.8-.6-10.8-.6-3-1.2-5.4-2.401-7.8-1.2-1.8-2.401-3.6-3.601-4.8-1.2-1.2-3.001-1.8-4.801-1.8-1.2 0-2.401 0-3.601.6-1.2.6-2.401 1.2-3.001 1.8l-3.001 2.4c-1.2 1.2-1.8 1.8-2.401 3v29.399zm81.027-46.799c4.801 0 8.402.6 12.003 1.2 3.001.6 6.001 1.8 8.402 3.6 2.401 1.8 3.601 3.6 4.801 5.4 1.2 2.4 1.8 4.8 1.8 7.2v47.399h-19.204v-4.8c-1.2 1.2-2.401 1.8-3.001 2.4l-3.601 1.8c-1.2.6-2.401 1.2-4.201 1.2-1.8.6-3.601.6-5.401.6-3.001 0-5.401-.6-7.802-1.2s-4.201-1.8-6.001-3.6c-1.8-1.2-3.001-3-3.601-5.4-.6-1.8-1.2-4.2-1.2-6.6 0-2.4.6-4.8 1.2-6.6.6-1.8 2.401-3.6 3.601-5.4 1.2-1.8 3.601-3 5.401-4.2 2.401-1.2 4.201-2.4 7.202-3.6 2.401-1.2 4.801-1.8 7.802-3l7.802-2.4 2.401-.6v-6.6c0-1.8 0-3.6-.6-5.4l-1.8-3.6c-.6-.6-1.8-1.8-2.401-1.8-1.2-.6-2.401-.6-3.601-.6 0 0-10.202 0-19.204 7.8l-4.201-6.6c-1.8 1.2 9.002-6.6 23.405-6.6zm6.601 31.799c-1.8.6-3.601 1.8-5.401 3l-5.401 3.6c-1.8 1.2-3.001 2.4-3.601 4.2-1.2 1.2-1.2 3-1.2 4.2 0 1.2 0 2.4.6 3.6l1.2 3c.6 1.2 1.2 1.2 1.8 1.8.6.6 1.2.6 2.401.6 1.8 0 3.001-.6 4.801-1.2l5.401-3.6v-19.199h-.6zm46.553 53.998h-12.603l-.6-11.4s15.603.6 20.405-5.4c1.8-2.4 3.001-9 3.001-9l-31.207-59.998h21.005l19.804 38.999 17.404-38.999h13.803l-31.807 70.798c-1.2 2.4-6.001 15-19.204 15z"/><ellipse cx="418.602" cy="189.5" fill="#2BA6DF" rx="9.602" ry="8.5"/><path fill="#3F3A39" d="M668.879 158.31h-6.601v-1.2h14.403v1.2h-6.601v18.599h-1.801v-18.599zM679.596 157.11h2.401l4.201 11.4 1.8 4.2 1.8-4.2 4.201-11.4h2.401v20.399h-2.401v-18l-1.8 4.8-4.201 12h-1.2l-4.201-12-1.8-4.8v18h-1.8v-20.399h.6z"/></g></svg>