<svg xmlns="http://www.w3.org/2000/svg" viewBox="0 0 385.14 110"><defs><style>.cls-1{fill:#00c43e;}.cls-2{fill:#fff;}</style></defs><title>line-pay-green</title><g id="Layer_1-2"><path class="cls-1" d="M278.76 70.69h11.46v-7.62h-11.62a3.81 3.81 0 0 0-3.73 4.57 3.91 3.91 0 0 0 3.89 3.05zM54.85 110h275.29a55 55 0 0 0 0-110h-275.29a55 55 0 0 0 0 110zm250.26-71.27h8a2.14 2.14 0 0 1 2 1.35l7.71 19.22 8.04-19.3a2.14 2.14 0 0 1 2-1.31h8.54a1.36 1.36 0 0 1 1.26 1.89l-20.7 49.31a1.74 1.74 0 0 1-1.64 1.11h-8.8a1.37 1.37 0 0 1-1.26-1.89l6.37-15.17-13.15-32.8a1.76 1.76 0 0 1 1.63-2.41zm-39.9 27.27c.48-7.13 6.73-12.5 13.87-12.5h11c-.33-2.79-1.48-3.7-1.9-4-1.79-1.39-5.92-2.52-15.46-.36a2.14 2.14 0 0 1-2.55-1.55l-1.33-5.17a2.14 2.14 0 0 1 1.59-2.61c7.47-1.73 17.18-2.92 23.65 2.1 2.6 2 5.71 6 5.71 13.21v23.04a2.14 2.14 0 0 1-2.14 2.14h-19.05a13.44 13.44 0 0 1-13.39-14.3zm-41-36.12a1.8 1.8 0 0 1 1.79-1.88h17a19.72 19.72 0 0 1 0 39.43h-7.29v11a1.81 1.81 0 0 1-1.8 1.8h-7.91a1.81 1.81 0 0 1-1.8-1.8zm-54.71 0a1.85 1.85 0 0 1 .55-1.3 1.82 1.82 0 0 1 1.26-.5h31.29a1.8 1.8 0 0 1 1.8 1.8v7.84a1.8 1.8 0 0 1-1.8 1.8h-21.6v9h21.65a1.8 1.8 0 0 1 1.8 1.8v7.83a1.8 1.8 0 0 1-1.8 1.81h-21.65v9h21.65a1.8 1.8 0 0 1 1.8 1.81v7.83a1.8 1.8 0 0 1-1.8 1.81h-31.3a1.78 1.78 0 0 1-1.23-.49l-.06-.07a1.76 1.76 0 0 1-.51-1.25zm-54.18 0a1.8 1.8 0 0 1 1.81-1.8h7.68l.34.07.48.21.14.1.13.11.12.12a1.73 1.73 0 0 1 .15.2l23.27 31.32v-30.37a1.8 1.8 0 0 1 1.8-1.8h7.84a1.8 1.8 0 0 1 1.8 1.8v48.66a1.81 1.81 0 0 1-1.8 1.8h-7.54a1.86 1.86 0 0 1-.49-.07l-.17-.06-.36-.19a1.79 1.79 0 0 1-.46-.45l-23.27-31.65v30.62a1.81 1.81 0 0 1-1.79 1.8h-7.83a1.81 1.81 0 0 1-1.81-1.8zm-20.07 0a1.81 1.81 0 0 1 1.83-1.88h7.83a1.8 1.8 0 0 1 1.81 1.8v48.7a1.81 1.81 0 0 1-1.81 1.8h-7.83a1.81 1.81 0 0 1-1.81-1.8zm-42.34 0a1.8 1.8 0 0 1 1.83-1.88h7.83a1.8 1.8 0 0 1 1.81 1.8v39h21.62a1.8 1.8 0 0 1 1.8 1.81v7.83a1.8 1.8 0 0 1-1.8 1.86h-31.26a1.82 1.82 0 0 1-1.3-.56 1.76 1.76 0 0 1-.51-1.25zM251.23 47.75a8.28 8.28 0 0 0-8.23-8.27h-7.29v16.52h7.29a8.28 8.28 0 0 0 8.23-8.25z"/><path class="cls-2" d="M97.08 80.3h7.83a1.81 1.81 0 0 0 1.81-1.8v-48.66a1.8 1.8 0 0 0-1.81-1.8h-7.83a1.81 1.81 0 0 0-1.81 1.8v48.66a1.81 1.81 0 0 0 1.81 1.8zM117.15 80.3h7.85a1.81 1.81 0 0 0 1.81-1.8v-30.62l23.29 31.65a1.79 1.79 0 0 0 .46.45l.36.19.17.06a1.86 1.86 0 0 0 .49.07h7.54a1.81 1.81 0 0 0 1.8-1.8v-48.66a1.8 1.8 0 0 0-1.8-1.8h-7.84a1.8 1.8 0 0 0-1.8 1.8v30.33l-23.29-31.32a1.73 1.73 0 0 0-.15-.2l-.12-.12-.13-.11-.14-.1-.48-.21-.34-.07h-7.68a1.8 1.8 0 0 0-1.81 1.8v48.66a1.81 1.81 0 0 0 1.81 1.8zM54.74 80.3h31.26a1.8 1.8 0 0 0 1.8-1.81v-7.83a1.8 1.8 0 0 0-1.8-1.81h-21.62v-39a1.8 1.8 0 0 0-1.81-1.85h-7.83a1.8 1.8 0 0 0-1.81 1.8v48.69a1.76 1.76 0 0 0 .51 1.25 1.82 1.82 0 0 0 1.3.56zM170.09 79.81a1.78 1.78 0 0 0 1.23.49h31.3a1.8 1.8 0 0 0 1.8-1.81v-7.83a1.8 1.8 0 0 0-1.8-1.81h-21.62v-9h21.65a1.8 1.8 0 0 0 1.8-1.81v-7.79a1.8 1.8 0 0 0-1.8-1.8h-21.65v-9h21.65a1.8 1.8 0 0 0 1.8-1.8v-7.81a1.8 1.8 0 0 0-1.8-1.8h-31.32a1.82 1.82 0 0 0-1.26.5 1.85 1.85 0 0 0-.55 1.3v48.65a1.76 1.76 0 0 0 .51 1.25zM278.6 80.3h19.09a2.14 2.14 0 0 0 2.14-2.14v-23.11c0-7.25-3.11-11.19-5.71-13.21-6.47-5-16.18-3.83-23.65-2.1a2.14 2.14 0 0 0-1.59 2.61l1.33 5.17a2.14 2.14 0 0 0 2.55 1.55c9.54-2.16 13.67-1 15.46.36.42.33 1.57 1.24 1.9 4h-11c-7.14 0-13.39 5.37-13.87 12.5a13.44 13.44 0 0 0 13.35 14.37zm0-17.23h11.62v7.62h-11.46a3.91 3.91 0 0 1-3.89-3 3.81 3.81 0 0 1 3.73-4.62zM316.63 73.94l-6.37 15.17a1.37 1.37 0 0 0 1.26 1.89h8.8a1.74 1.74 0 0 0 1.61-1.07l20.7-49.31a1.36 1.36 0 0 0-1.26-1.89h-8.54a2.14 2.14 0 0 0-2 1.31l-8.05 19.26-7.71-19.22a2.14 2.14 0 0 0-2-1.35h-8a1.76 1.76 0 0 0-1.63 2.41zM226 80.3h7.84a1.81 1.81 0 0 0 1.8-1.8v-11h7.36a19.72 19.72 0 0 0 0-39.5h-17a1.8 1.8 0 0 0-1.8 1.8v48.7a1.81 1.81 0 0 0 1.8 1.8zm9.64-40.82h7.36a8.28 8.28 0 0 1 0 16.52h-7.29z"/></g></svg>