<svg xmlns="http://www.w3.org/2000/svg" viewBox="0 0 385.14 110"><defs><style>.cls-1{fill:#fff;}</style></defs><title>line-pay-white</title><g id="Layer_1-2"><path class="cls-1" d="M278.76 70.69h11.46v-7.62h-11.62a3.81 3.81 0 0 0-3.73 4.57 3.91 3.91 0 0 0 3.89 3.05zM54.85 110h275.29a55 55 0 0 0 0-110h-275.29a55 55 0 0 0 0 110zm250.26-71.27h8a2.14 2.14 0 0 1 2 1.35l7.71 19.22 8.04-19.3a2.14 2.14 0 0 1 2-1.31h8.54a1.36 1.36 0 0 1 1.26 1.89l-20.7 49.31a1.74 1.74 0 0 1-1.64 1.11h-8.8a1.37 1.37 0 0 1-1.26-1.89l6.37-15.17-13.15-32.8a1.76 1.76 0 0 1 1.63-2.41zm-39.9 27.27c.48-7.13 6.73-12.5 13.87-12.5h11c-.33-2.79-1.48-3.7-1.9-4-1.79-1.39-5.92-2.52-15.46-.36a2.14 2.14 0 0 1-2.55-1.55l-1.33-5.17a2.14 2.14 0 0 1 1.59-2.61c7.47-1.73 17.18-2.92 23.65 2.1 2.6 2 5.71 6 5.71 13.21v23.04a2.14 2.14 0 0 1-2.14 2.14h-19.05a13.44 13.44 0 0 1-13.39-14.3zm-41-36.12a1.8 1.8 0 0 1 1.79-1.88h17a19.72 19.72 0 0 1 0 39.43h-7.29v11a1.81 1.81 0 0 1-1.8 1.8h-7.91a1.81 1.81 0 0 1-1.8-1.8zm-54.71 0a1.85 1.85 0 0 1 .55-1.3 1.82 1.82 0 0 1 1.26-.5h31.29a1.8 1.8 0 0 1 1.8 1.8v7.84a1.8 1.8 0 0 1-1.8 1.8h-21.6v9h21.65a1.8 1.8 0 0 1 1.8 1.8v7.83a1.8 1.8 0 0 1-1.8 1.81h-21.65v9h21.65a1.8 1.8 0 0 1 1.8 1.81v7.83a1.8 1.8 0 0 1-1.8 1.81h-31.3a1.78 1.78 0 0 1-1.23-.49l-.06-.07a1.76 1.76 0 0 1-.51-1.25zm-54.18 0a1.8 1.8 0 0 1 1.81-1.8h7.68l.34.07.48.21.14.1.13.11.12.12a1.73 1.73 0 0 1 .15.2l23.27 31.32v-30.37a1.8 1.8 0 0 1 1.8-1.8h7.84a1.8 1.8 0 0 1 1.8 1.8v48.66a1.81 1.81 0 0 1-1.8 1.8h-7.54a1.86 1.86 0 0 1-.49-.07l-.17-.06-.36-.19a1.79 1.79 0 0 1-.46-.45l-23.27-31.65v30.62a1.81 1.81 0 0 1-1.79 1.8h-7.83a1.81 1.81 0 0 1-1.81-1.8zm-20.07 0a1.81 1.81 0 0 1 1.83-1.88h7.83a1.8 1.8 0 0 1 1.81 1.8v48.7a1.81 1.81 0 0 1-1.81 1.8h-7.83a1.81 1.81 0 0 1-1.81-1.8zm-42.34 0a1.8 1.8 0 0 1 1.83-1.88h7.83a1.8 1.8 0 0 1 1.81 1.8v39h21.62a1.8 1.8 0 0 1 1.8 1.81v7.83a1.8 1.8 0 0 1-1.8 1.86h-31.26a1.82 1.82 0 0 1-1.3-.56 1.76 1.76 0 0 1-.51-1.25zM251.23 47.75a8.28 8.28 0 0 0-8.23-8.27h-7.29v16.52h7.29a8.28 8.28 0 0 0 8.23-8.25z"/></g></svg>