<svg xmlns="http://www.w3.org/2000/svg" width="750" height="471" viewBox="0 0 750 471"><g fill="none"><rect width="750" height="471" rx="40"/><path fill="#D10429" d="M201.81 55h142.394c19.869 0 32.287 16.406 27.63 36.47l-66.333 287.478c-4.657 20.064-24.629 36.47-44.498 36.47h-142.394c-19.869 0-32.287-16.406-27.63-36.47l66.333-287.478c4.657-20.168 24.526-36.47 44.395-36.47h.103z"/><path fill="#022E64" d="M331.75 55h163.815c19.869 0 10.866 16.406 6.209 36.47l-66.333 287.478c-4.657 20.064-3.208 36.47-23.077 36.47h-163.815c-19.972 0-32.287-16.406-27.527-36.47l66.333-287.478c4.657-20.168 24.526-36.47 44.498-36.47h-.103z"/><path fill="#076F74" d="M489.815 55h142.394c19.869 0 32.287 16.406 27.63 36.47l-66.333 287.478c-4.657 20.064-24.629 36.47-44.498 36.47h-142.394c-19.972 0-32.287-16.406-27.63-36.47l66.333-287.478c4.657-20.168 24.526-36.47 44.395-36.47h.103z"/><path fill="#FEFEFE" d="M465.905 326.015h13.453l3.829-13.062h-13.349l-3.932 13.062zm10.762-35.948l-4.657 15.466s5.071-2.612 7.865-3.448c2.794-.627 6.933-1.149 6.933-1.149l3.208-10.763h-13.453l.103-.105zm6.726-22.154l-4.45 14.839s4.967-2.299 7.761-3.03c2.794-.731 6.933-.94 6.933-.94l3.208-10.763h-13.349l-.103-.105zm29.7 0l-17.385 57.997h4.657l-3.622 12.017h-4.657l-1.138 3.657h-16.557l1.138-3.657h-33.529l3.311-11.077h3.415l17.592-58.938 3.518-11.913h16.868l-1.759 5.956s4.45-3.239 8.796-4.389c4.243-1.149 28.665-1.567 28.665-1.567l-3.622 11.808h-5.795l.103.104zM520 256h18.006l.207 6.792c-.103 1.149.828 1.672 3.001 1.672h3.622l-3.311 11.181h-9.727c-8.382.627-11.59-3.03-11.383-7.106l-.31-12.435-.103-.104zm2.216 53.2h-17.178l2.898-9.927h19.662l2.794-9.091h-19.351l3.311-11.181h53.812l-3.311 11.181h-18.11l-2.794 9.091h18.11l-3.001 9.927h-19.558l-3.518 4.18h7.968l1.966 12.54c.207 1.254.207 2.09.621 2.612.414.418 2.794.627 4.139.627h2.38l-3.725 12.226h-6.106c-.931 0-2.38-.105-4.346-.105-1.863-.209-3.105-1.254-4.346-1.881-1.138-.522-2.794-1.881-3.208-4.284l-1.863-12.54-8.9 12.331c-2.794 3.866-6.623 6.897-13.142 6.897h-12.418l3.311-10.868h4.76c1.345 0 2.587-.522 3.518-1.045.931-.418 1.759-.836 2.587-2.194l13.039-18.496zm-187.903-27.2h45.429l-3.311 10.972h-18.11l-2.794 9.3h18.627l-3.415 11.286h-18.524l-4.553 15.152c-.517 1.672 4.45 1.881 6.209 1.881l9.314-1.254-3.725 12.54h-20.904c-1.656 0-2.898-.209-4.76-.627-1.759-.418-2.587-1.254-3.311-2.403-.724-1.254-1.966-2.194-1.138-4.911l6.002-20.064h-10.348l3.415-11.495h10.348l2.794-9.3h-10.348l3.311-10.972-.207-.104zm31.387-19.835h18.627l-3.415 11.39h-25.457l-2.794 2.403c-1.242 1.149-1.552.731-3.105 1.567-1.449.731-4.45 2.194-8.382 2.194h-8.175l3.311-10.972h2.484c2.07 0 3.518-.209 4.243-.627.828-.522 1.759-1.672 2.691-3.553l4.657-8.569h18.524l-3.208 6.27v-.104zm35.108 18.81s5.071-4.702 13.763-6.165c1.966-.418 14.384-.209 14.384-.209l1.863-6.27h-26.181l-3.829 12.749v-.104zm24.629 4.807h-25.974l-1.552 5.329h22.559c2.691-.313 3.208.104 3.415-.104l1.656-5.225h-.103zm-33.736-29.678h15.833l-2.277 8.046s4.967-4.075 8.486-5.538c3.518-1.254 11.383-2.508 11.383-2.508l25.664-.104-8.796 29.469c-1.449 5.016-3.208 8.255-4.243 9.823-.931 1.463-2.07 2.821-4.346 4.075-2.173 1.149-4.139 1.881-6.002 1.985-1.656.104-4.346.209-7.865.209h-24.733l-6.933 23.303c-.621 2.299-.931 3.448-.517 4.075.31.522 1.242 1.149 2.38 1.149l10.866-1.045-3.725 12.749h-12.211c-3.932 0-6.726-.104-8.693-.209-1.863-.209-3.829 0-5.174-1.045-1.138-1.045-2.898-2.403-2.794-3.762.103-1.254.621-3.344 1.449-6.27l22.249-74.403zM437.84 303l-1.449 7.106c-.621 2.194-1.138 3.866-2.794 5.329-1.759 1.463-3.725 3.03-8.486 3.03l-8.796.418-.103 7.942c-.103 2.194.517 1.985.828 2.403.414.418.724.522 1.138.731l2.794-.209 8.382-.418-3.518 11.704h-9.624c-6.726 0-11.797-.209-13.349-1.463-1.656-1.045-1.863-2.299-1.863-4.598l.621-31.141h15.419l-.207 6.374h3.725c1.242 0 2.173-.104 2.691-.418.517-.313.828-.836 1.035-1.567l1.552-5.016h12.108l-.103-.209zm-219.37-156c-.517 2.508-10.452 48.592-10.452 48.592-2.173 9.3-3.725 15.988-8.9 20.273-3.001 2.508-6.519 3.657-10.555 3.657-6.519 0-10.245-3.239-10.866-9.405l-.103-2.09s1.966-12.435 1.966-12.54c0 0 10.348-42.009 12.211-47.547.103-.313.103-.522.103-.627-20.179.209-23.801 0-24.008-.313-.103.418-.621 3.03-.621 3.03l-10.555 47.338-.931 3.971-1.759 13.167c0 3.866.724 7.106 2.277 9.718 4.864 8.569 18.627 9.823 26.388 9.823 10.038 0 19.455-2.194 25.767-6.061 11.073-6.583 13.97-16.929 16.454-26.02l1.242-4.702s10.659-43.576 12.522-49.219c.103-.313.103-.522.207-.627-14.695.104-18.938 0-20.386-.313v-.104zm59.029 86.623c-7.14-.105-9.727-.105-18.11.313l-.31-.627c.724-3.239 1.552-6.374 2.173-9.614l1.035-4.389c1.552-6.792 3.001-14.839 3.208-17.242.207-1.463.621-5.12-3.518-5.12-1.759 0-3.518.836-5.381 1.672-1.035 3.657-3.001 13.898-4.036 18.496-2.07 9.823-2.173 10.972-3.105 15.779l-.621.627c-7.347-.104-9.934-.104-18.42.313l-.414-.731c1.449-5.852 2.794-11.704 4.139-17.556 3.518-15.779 4.45-21.84 5.381-29.887l.724-.418c8.279-1.149 10.245-1.463 19.248-3.239l.724.836-1.345 5.016c1.552-.94 3.001-1.881 4.553-2.612 4.243-2.09 8.9-2.717 11.487-2.717 3.932 0 8.279 1.149 10.038 5.747 1.656 4.075.621 9.091-1.656 19.019l-1.138 5.016c-2.277 11.077-2.691 13.062-3.932 20.586l-.828.627.103.105zm29.059.028c-4.346 0-7.14-.105-9.831 0-2.691 0-5.278.209-9.314.313l-.207-.313-.207-.418c1.138-4.18 1.656-5.643 2.277-7.106.517-1.463 1.035-2.926 2.07-7.21 1.242-5.538 2.07-9.405 2.587-12.853.621-3.239.931-6.061 1.345-9.3l.31-.209.31-.313c4.346-.627 7.037-1.045 9.831-1.463 2.794-.418 5.692-.94 10.141-1.776l.207.418.103.418-2.484 10.345c-.828 3.448-1.656 6.897-2.38 10.345-1.552 7.315-2.277 10.032-2.587 12.017-.414 1.881-.517 2.821-1.138 6.583l-.414.313-.414.313-.207-.104zm45.941-25.675c-.31 1.881-1.966 8.882-4.139 11.808-1.552 2.194-3.311 3.553-5.381 3.553-.621 0-4.139 0-4.243-5.329 0-2.612.517-5.329 1.138-8.255 1.863-8.464 4.139-15.466 9.831-15.466 4.45 0 4.76 5.225 2.794 13.689zm18.731.836c2.484-11.077.517-16.302-1.863-19.437-3.725-4.807-10.348-6.374-17.178-6.374-4.139 0-13.867.418-21.525 7.524-5.485 5.12-8.072 12.122-9.521 18.81-1.552 6.792-3.311 19.019 7.865 23.617 3.415 1.463 8.382 1.881 11.59 1.881 8.175 0 16.557-2.299 22.87-8.987 4.864-5.434 7.037-13.585 7.865-17.033h-.103zm174.432 26.08c-8.693-.105-11.176-.105-19.144.313l-.517-.627c2.173-8.255 4.346-16.615 6.313-24.975 2.484-10.868 3.105-15.466 3.932-21.84l.621-.522c8.589-1.254 10.969-1.567 19.972-3.239l.207.731c-1.656 6.897-3.208 13.689-4.864 20.482-3.311 14.316-4.45 21.631-5.692 29.155l-.828.627v-.104zM533.16 209.374c-.414 1.776-2.07 8.882-4.243 11.808-1.449 2.09-4.967 3.448-6.933 3.448-.621 0-4.036 0-4.243-5.225 0-2.612.517-5.329 1.138-8.255 1.863-8.255 4.139-15.257 9.831-15.257 4.45 0 6.416 5.12 4.45 13.585v-.105zm17.075.836c2.484-11.077-7.658-.94-9.21-4.598-2.484-5.747-.931-17.242-10.866-21.109-3.829-1.567-12.832.418-20.49 7.524-5.381 5.016-8.072 12.017-9.521 18.705-1.552 6.688-3.311 19.019 7.761 23.303 3.518 1.567 6.726 1.985 9.934 1.776 11.176-.627 19.662-17.66 25.974-24.348 4.864-5.329 5.692 1.985 6.416-1.254zm-129.943 23.413c-7.14-.105-9.624-.105-18.006.313l-.31-.627 2.277-9.614.931-4.389c1.552-6.792 3.105-14.839 3.208-17.242.207-1.463.621-5.12-3.415-5.12-1.759 0-3.622.836-5.381 1.672-.931 3.657-3.001 13.898-4.036 18.496-1.966 9.823-2.173 10.972-3.105 15.779l-.621.627c-7.347-.104-9.934-.104-18.42.313l-.414-.731c1.449-5.852 2.794-11.704 4.139-17.556 3.518-15.779 4.346-21.84 5.381-29.887l.621-.418c8.279-1.149 10.348-1.463 19.248-3.239l.724.836-1.242 5.016c1.449-.94 3.001-1.881 4.45-2.612 4.243-2.09 8.9-2.717 11.487-2.717 3.932 0 8.175 1.149 10.038 5.747 1.656 4.075.517 9.091-1.759 19.019l-1.138 5.016c-2.38 11.077-2.691 13.062-3.932 20.586l-.828.627.103.105zm62.001-86.518l-6.002.105c-15.523.209-21.732.104-24.215-.209-.207 1.149-.621 3.135-.621 3.135s-5.588 25.916-5.588 26.02c0 0-13.246 55.176-13.867 57.788 13.556-.209 19.041-.209 21.421.105.517-2.612 3.622-17.974 3.725-17.974 0 0 2.691-11.286 2.794-11.704 0 0 .828-1.149 1.656-1.672h1.242c11.694 0 24.836 0 35.184-7.628 7.037-5.225 11.797-13.062 13.97-22.467.517-2.299.931-5.016.931-7.837 0-3.657-.724-7.21-2.794-10.032-5.278-7.419-15.73-7.524-27.837-7.628zm7.761 27.065c-1.242 5.747-4.967 10.659-9.727 12.958-3.932 1.985-8.693 2.194-13.66 2.194h-3.208l.207-1.254s5.899-25.916 5.899-25.811l.207-1.358.103-1.045 2.38.209s12.211 1.045 12.418 1.045c4.76 1.881 6.83 6.688 5.381 13.062zm127.207 8.666l-.724-.836c-8.796 1.776-10.452 2.09-18.524 3.239l-.621.627c0 .104-.103.209-.103.418v-.104c-6.002 14.107-5.899 11.077-10.762 22.154 0-.522 0-.836-.103-1.358l-1.242-24.035-.724-.836c-9.314 1.776-9.521 2.09-18.006 3.239l-.621.627c-.103.313-.103.627-.103.94l.103.104c1.035 5.538.828 4.284 1.863 12.958.517 4.284 1.138 8.569 1.656 12.749.828 7.106 1.345 10.554 2.38 21.318-5.795 9.614-7.14 13.271-12.729 21.736l.31.836c8.382-.313 10.245-.313 16.454-.313l1.345-1.567c4.657-10.136 40.255-71.791 40.255-71.791l-.103-.104zm-302.718 6.922c4.76-3.344 5.381-7.942 1.345-10.345-4.036-2.403-11.176-1.672-15.937 1.672-4.76 3.239-5.278 7.837-1.242 10.345 3.932 2.299 11.073 1.672 15.833-1.672zM575.735 256.104l-6.933 12.017c-2.173 4.075-6.313 7.21-12.729 7.21l-11.073-.209 3.208-10.868h2.173c1.138 0 1.966-.105 2.587-.418.621-.209.931-.627 1.449-1.254l4.139-6.583h17.282l-.103.104z"/></g></svg>