<svg xmlns="http://www.w3.org/2000/svg" viewBox="0 0 70 48"><defs><style>.cls-1{fill:#00adef;}.cls-2,.cls-3{fill:#fff;}.cls-2{fill-rule:evenodd;}</style></defs><title>american-express</title><g id="master"><rect class="cls-1" width="70" height="48" rx="4" ry="4"/><path class="cls-2" d="M30.12 26.09l-3.69-8.28h-4.72v11.9l-5.34-11.9h-4l-5.37 12.38h3.21l1.1-2.8h6.09l1.16 2.8h6.16v-9.19l4 9.23h2.81l4.1-9v9h3v-12.42h-4.82l-3.69 8.28zm-15.73-1.37h-1.85l1.85-4.31v.14l1.84 4.17z"/><path class="cls-3" d="M57.62 23.79l2.19-2.32 3.19-3.63h-3.81l-3.42 3.77-3.42-3.77h-12v12.25h11.65l3.63-4 3.55 4.11h3.82l-3.19-3.77zm-7.25 3.77h-6.91v-2.47h6.7v-2.32h-6.7v-2.26h6.91l3.42 3.28z"/></g></svg>