<svg xmlns="http://www.w3.org/2000/svg" viewBox="0 0 70 48"><defs><style>.cls-1{fill:#f5f5f5;}.cls-2{fill:#0a5296;}.cls-3{fill:#fff;}</style></defs><title>dinner-club</title><g id="dinner_club"><rect class="cls-1" width="70" height="48" rx="4" ry="4"/><path class="cls-2" d="M30.3 4.5h9.39a19.3 19.3 0 0 1 19.31 19.31v.39a19.31 19.31 0 0 1-19.31 19.3h-9.39a19.3 19.3 0 0 1-19.3-19.3v-.39a19.3 19.3 0 0 1 19.3-19.31z"/><path class="cls-3" d="M31.56 8.24a15.82 15.82 0 1 0 15.82 15.82 15.81 15.81 0 0 0-15.82-15.82zm-11.22 15.82a10.71 10.71 0 0 1 8.25-10.64v21.28a10.73 10.73 0 0 1-8.25-10.64zm13.25 10.64v-21.28a10.71 10.71 0 0 1 8.25 10.64 10.73 10.73 0 0 1-8.25 10.64z"/></g></svg>