<svg xmlns="http://www.w3.org/2000/svg" viewBox="0 0 70 48"><defs><style>.cls-1{fill:#e5e5e5;}.cls-2{fill:#fff;}.cls-3{fill:#0f6caf;}.cls-4{fill:#de0a25;}.cls-5{fill:#138e3b;}</style></defs><title>jcb</title><g id="jcb-2"><rect class="cls-1" width="70" height="48" rx="4" ry="4"/><path class="cls-2" d="M54 41h-46.4v-24a10 10 0 0 1 10-10h44.4v26a8 8 0 0 1-8 8z"/><path class="cls-3" d="M20.6 38h-9.6v-22c0-3.31 3.89-6 7.2-6h7.2v22c0 3.31-1.49 6-4.8 6z"/><path class="cls-4" d="M37.4 38h-9.6v-22c0-3.31 3.89-6 7.2-6h7.2v22c0 3.31-1.49 6-4.8 6z"/><path class="cls-5" d="M54.2 38h-9.6v-22c0-3.31 3.89-6 7.2-6h7.2v22c0 3.31-1.49 6-4.8 6z"/></g></svg>