<svg xmlns="http://www.w3.org/2000/svg" viewBox="0 0 70 48"><defs><style>.cls-1{fill:#192169;}.cls-2{fill:#ff0016;}.cls-3{fill:#ffa916;}</style></defs><title>master</title><g id="master-2"><rect class="cls-1" width="70" height="48" rx="4" ry="4"/><path class="cls-2" d="M35 14.1a15 15 0 1 0 0 19.8 14.94 14.94 0 0 1 0-19.8zM35 14.1a14.94 14.94 0 0 0 0 19.8 14.94 14.94 0 0 0 0-19.8z"/><path class="cls-3" d="M46.25 9a15 15 0 0 0-11.25 5.1 15.19 15.19 0 0 0-1.72 2.4h3.44a15.12 15.12 0 0 1 1.3 3h-6.02a14.15 14.15 0 0 0-.63 3h7.32a14.72 14.72 0 0 1 .1 1.5 14.76 14.76 0 0 1-.08 1.5h-7.38a14.15 14.15 0 0 0 .63 3h6.04a14.42 14.42 0 0 1-1.33 3h-3.39a15.66 15.66 0 0 0 1.72 2.4 15 15 0 1 0 11.25-24.9z"/></g></svg>