<svg xmlns="http://www.w3.org/2000/svg" viewBox="0 0 70 48"><defs><style>.cls-1{fill:#fcfcfc;}.cls-2{fill:#005098;}.cls-3{fill:#f6a500;}.cls-4{fill:#0a5296;}.cls-5{fill:#f4a428;}</style></defs><title>visa</title><g id="visa-2"><rect class="cls-1" width="70" height="48" rx="4" ry="4"/><path class="cls-2" d="M25.73 32.34l2.83-16.64h4.54l-2.84 16.64h-4.53zM46.7 16.11a11.84 11.84 0 0 0-4.06-.69c-4.48 0-7.64 2.25-7.66 5.48 0 2.39 2.25 3.73 4 4.52s2.36 1.34 2.35 2.07c0 1.11-1.41 1.62-2.71 1.62a9.52 9.52 0 0 1-4.27-.87l-.61-.24-.64 3.7a14.47 14.47 0 0 0 5 .88c4.77 0 7.86-2.23 7.9-5.68 0-1.89-1.2-3.33-3.81-4.52-1.59-.77-2.56-1.28-2.55-2.06s.82-1.43 2.6-1.43a8.33 8.33 0 0 1 3.39.64l.41.19.61-3.61"/><path class="cls-2" d="M58.33 15.72h-3.5a2.27 2.27 0 0 0-2.38 1.38l-6.73 15.24h4.76l1-2.5h5.81c.14.58.55 2.49.55 2.49h4.16l-3.67-16.61m-5.59 10.72l1.81-4.65c0 .05.37-1 .6-1.59l.3 1.44 1 4.8zM21.93 15.72l-4.44 11.34-.49-2.31a13 13 0 0 0-6.28-7l4.06 14.54h4.8l7.14-16.6h-4.8"/><path class="cls-3" d="M13.37 15.71h-7.31l-.06.34c5.69 1.38 9.45 4.71 11 8.7l-1.59-7.64a1.89 1.89 0 0 0-2.05-1.4"/><path class="cls-4" d="M70 10h-70v-6a4 4 0 0 1 4-4h62a4 4 0 0 1 4 4z"/><path class="cls-5" d="M0 38h70v6a4 4 0 0 1-4 4h-62a4 4 0 0 1-4-4z"/></g></svg>