<svg width="644" height="185" viewBox="0 0 644 185" fill="none" xmlns="http://www.w3.org/2000/svg">
<rect width="642.401" height="184.794" fill="black" fill-opacity="0" transform="translate(0.998993 0.00100708)"/>
<rect width="642.401" height="184.794" fill="black" fill-opacity="0" transform="translate(0.998993 0.00100708)"/>
<path d="M46.46 100.349C41.659 100.949 33.257 102.749 28.456 106.949C14.053 119.549 22.455 141.748 51.861 141.748C68.665 141.748 85.468 130.948 98.671 114.149C79.467 105.149 63.863 98.549 46.459 100.349H46.46ZM154.034 115.797C181.04 124.797 187.041 125.397 187.041 125.397V29.4C187.041 13.2 173.838 0.00100708 157.034 0.00100708H31.006C14.802 0.00100708 0.998993 13.201 0.998993 29.4V155.396C0.998993 171.596 14.202 184.795 31.006 184.795H157.034C173.238 184.795 187.041 171.595 187.041 155.396V154.196C187.041 154.196 139.03 134.397 114.425 122.397C98.221 142.196 77.217 154.796 55.012 154.796C17.804 154.796 5.20099 122.397 23.205 101.398C26.806 96.598 33.407 92.398 43.61 89.998C59.213 86.398 84.419 92.398 107.824 100.198C112.025 92.398 115.626 83.998 118.026 74.999H45.41V67.799H82.618V53.399H37.008V46.199H82.618V27.6C82.618 27.6 82.618 24.6 85.619 24.6H103.623V46.799H148.633V53.399H103.623V66.599H140.231C136.63 80.999 131.229 94.198 124.628 105.598C136.631 109.798 146.833 113.398 154.035 115.798L154.034 115.797Z" fill="#2BA6DF"/>
<path d="M272.689 43.613L312.298 129.411H291.293L280.491 106.612H248.084L237.282 129.411H223.479L263.688 46.013C263.688 46.013 264.888 43.613 267.289 43.613H272.69H272.689ZM251.684 98.811H276.89L264.287 71.812L251.684 98.811ZM339.132 130.093H319.928V48.495C319.928 46.095 321.128 44.895 324.129 44.895H339.132V130.093ZM375.14 129.534H355.936V67.736C355.936 65.336 357.136 64.136 360.137 64.136H375.14V129.534ZM398.622 65.419H411.225V71.419C413.626 69.619 416.026 67.819 419.027 67.219C422.028 66.019 425.028 65.419 429.229 65.419C433.43 65.419 437.031 66.019 440.031 67.819C443.632 69.619 446.032 71.419 448.433 74.419C450.834 77.419 452.634 80.419 453.834 84.019C455.034 87.619 455.634 91.219 455.634 95.419C455.634 100.819 455.034 105.619 453.233 109.819C451.433 114.019 449.632 118.219 446.632 121.219C443.631 124.219 440.631 127.219 436.43 129.019C432.229 130.819 428.028 131.419 423.227 131.419H416.626C414.826 131.419 413.025 130.819 411.225 130.219V151.818H392.021V73.22C391.421 65.42 394.422 65.42 398.622 65.42V65.419ZM411.225 112.218C411.225 114.018 411.225 115.218 411.825 116.418C412.425 117.618 413.025 118.818 414.226 120.018C415.426 121.218 416.627 121.818 417.827 122.418C419.027 123.018 420.828 123.018 422.628 123.018C424.428 123.018 425.629 122.418 427.429 121.218C428.629 120.018 430.43 118.818 431.03 116.418C431.63 114.018 432.83 112.218 433.431 109.218C434.031 106.218 434.631 103.818 434.631 100.218C434.631 96.018 434.631 92.418 434.031 89.418C433.431 86.418 432.831 84.018 431.63 81.618C430.43 79.818 429.229 78.018 428.029 76.818C426.829 75.618 425.028 75.018 423.228 75.018C422.028 75.018 420.827 75.018 419.627 75.618C418.427 76.218 417.226 76.818 416.626 77.418L413.625 79.818C412.425 81.018 411.825 81.618 411.224 82.818V112.217L411.225 112.218ZM492.252 65.419C497.053 65.419 500.654 66.019 504.255 66.619C507.256 67.219 510.256 68.419 512.657 70.219C515.058 72.019 516.258 73.819 517.458 75.619C518.658 78.019 519.258 80.419 519.258 82.819V130.218H500.054V125.418C498.854 126.618 497.653 127.218 497.053 127.818L493.452 129.618C492.252 130.218 491.051 130.818 489.251 130.818C487.451 131.418 485.65 131.418 483.85 131.418C480.849 131.418 478.449 130.818 476.048 130.218C473.647 129.618 471.847 128.418 470.047 126.618C468.247 125.418 467.046 123.618 466.446 121.218C465.846 119.418 465.246 117.018 465.246 114.618C465.246 112.218 465.846 109.818 466.446 108.018C467.046 106.218 468.847 104.418 470.047 102.618C471.247 100.818 473.648 99.618 475.448 98.418C477.849 97.218 479.649 96.018 482.65 94.818C485.051 93.618 487.451 93.018 490.452 91.818L498.254 89.418L500.655 88.818V82.218C500.655 80.418 500.655 78.618 500.055 76.818L498.255 73.218C497.655 72.618 496.455 71.418 495.854 71.418C494.654 70.818 493.453 70.818 492.253 70.818C492.253 70.818 482.051 70.818 473.049 78.618L468.848 72.018C467.048 73.218 477.85 65.418 492.253 65.418L492.252 65.419ZM498.853 97.218C497.053 97.818 495.252 99.018 493.452 100.218L488.051 103.818C486.251 105.018 485.05 106.218 484.45 108.018C483.25 109.218 483.25 111.018 483.25 112.218C483.25 113.418 483.25 114.618 483.85 115.818L485.05 118.818C485.65 120.018 486.25 120.018 486.85 120.618C487.45 121.218 488.05 121.218 489.251 121.218C491.051 121.218 492.252 120.618 494.052 120.018L499.453 116.418V97.219H498.853V97.218ZM545.406 151.216H532.803L532.203 139.816C532.203 139.816 547.806 140.416 552.608 134.416C554.408 132.016 555.609 125.416 555.609 125.416L524.402 65.418H545.407L565.211 104.417L582.615 65.418H596.418L564.611 136.216C563.411 138.616 558.61 151.216 545.407 151.216H545.406Z" fill="#3F3A39"/>
<path d="M365.602 55C370.905 55 375.204 51.1944 375.204 46.5C375.204 41.8056 370.905 38 365.602 38C360.299 38 356 41.8056 356 46.5C356 51.1944 360.299 55 365.602 55Z" fill="#2BA6DF"/>
<path d="M615.879 15.31H609.278V14.11H623.681V15.31H617.08V33.909H615.279V15.31H615.879ZM626.596 14.11H628.997L633.198 25.51L634.998 29.71L636.798 25.51L640.999 14.11H643.4V34.509H640.999V16.509L639.199 21.309L634.998 33.309H633.798L629.597 21.309L627.797 16.509V34.509H625.997V14.11H626.597H626.596Z" fill="#3F3A39"/>
</svg>
