<svg width="70" height="37" viewBox="0 0 70 37" xmlns="http://www.w3.org/2000/svg"><g fill="none"><path d="M10.115 23.897c0-1.422-.271-2.517-.823-3.283-.55-.764-1.332-1.144-2.358-1.144-.99 0-1.759.38-2.309 1.144-.513.694-.766 1.788-.766 3.283 0 1.38.272 2.42.822 3.11.549.769 1.338 1.146 2.361 1.146.951 0 1.7-.377 2.25-1.146.552-.76.823-1.799.823-3.11zm-6.255 10.705c0 1.307-.786 1.86-1.866 1.86h-1.868v-13.607c0-2.547 1.77-6.608 7.135-6.608.918 0 6.645-.016 6.645 7.482 0 7.197-4.157 7.656-5.877 7.656-2.303 0-3.732-1.424-4.17-2.19v5.407z" fill="#004094"/><path d="M54.843 5.279l-.394-.176-.394-.175-4.505-1.999a3.029 3.029 0 0 0-3.779 1.132l.227.53 1.519 3.552h7.724v4.597l1.359-3.035.176-.393.176-.392 1.011-2.257-3.12-1.384z" fill="#8EC31F"/><path d="M35.389 8.143h10.59l-1.012-2.367-.271-.633-.107-.252-.174-.404-.205-.481-.075-.177-1.613-3.769-5.212 2.207-.66.279-.659.28-7.528 3.188c-2.543 1.077-3.731 4.013-2.65 6.544l2.115 4.946v-1.933c0-4.096 3.347-7.428 7.462-7.428" fill="#00A0E8"/><path d="M47.35 9.551h-11.961c-3.334 0-6.047 2.701-6.047 6.02v18.352h18.436c3.334 0 6.047-2.701 6.047-6.02v-18.352h-6.475z" fill="#E3007E"/><path d="M23.93 23.785c-2.87 1.309-5.214.906-5.214 2.898 0 .545.217 1.744 1.919 1.744 1.027 0 3.295-.172 3.295-3.274v-1.368zm.67 6.793c-2.7 1.317-9.454 1.738-9.454-3.786 0-1.53.468-2.6 1.344-3.28 2.593-2.004 7.385-1.339 7.385-2.95 0-.545-.333-1.312-2.417-1.312-1.697 0-2.066.637-2.249 1.04h-3.68c.147-1.128 1.115-4.043 5.765-4.043 5.694 0 6.203 2.784 6.203 4.097v4.97c0 3.494-1.777 4.723-2.898 5.264z" fill="#004094"/><path d="M35.308 31.103h-3.842v-12.68c0-.512.185-.95.546-1.31.368-.369.806-.55 1.32-.55h1.976v14.54zm0-15.797h-3.842v-1.146c0-.512.185-.948.546-1.313.368-.366.806-.55 1.32-.55h1.976v3.008zm6.321 8.415c0 1.462.271 2.569.82 3.334.548.766 1.337 1.149 2.362 1.149.987 0 1.757-.383 2.307-1.15.511-.764.768-1.871.768-3.333 0-1.308-.275-2.35-.824-3.117-.587-.723-1.372-1.09-2.359-1.09-.953 0-1.706.384-2.253 1.15-.55.727-.821 1.749-.821 3.057zm6.257-11.475h1.865c.512 0 .953.191 1.319.572.366.385.548.816.548 1.288v10.659c0 2.582-.749 4.331-2.25 5.244a9.296 9.296 0 0 1-4.886 1.364 8.622 8.622 0 0 1-2.8-.466c-.915-.307-1.649-.811-2.198-1.5-1.06-1.35-1.59-3.187-1.59-5.521 0-2.293.53-4.131 1.59-5.52 1.1-1.422 2.51-2.13 4.23-2.13.913 0 1.719.183 2.415.544a5.211 5.211 0 0 1 1.757 1.697v-6.23z" fill="#FEFEFE"/><path d="M57.74 36.244v-3.005h1.042c.733 0 1.309-.173 1.732-.52.418-.344.502-.9.246-1.664l-5.106-14.485h4.228l2.963 10.276 2.58-8.965c.22-.87.804-1.31 1.757-1.31h2.636l-5.598 16.557c-.442 1.203-1 2.046-1.649 2.57-1.438 1.147-4.72.545-4.831.545" fill="#004094"/></g></svg>